<?xml version="1.0" encoding="utf-8"?>
<!-- Generator: Adobe Illustrator 19.0.0, SVG Export Plug-In . SVG Version: 6.00 Build 0)  -->
<svg version="1.1" id="Layer_1" xmlns="http://www.w3.org/2000/svg" xmlns:xlink="http://www.w3.org/1999/xlink" x="0px" y="0px"
	 viewBox="0 0 312.1 283" style="enable-background:new 0 0 312.1 283;" xml:space="preserve">
<style type="text/css">
	.st0{fill:#006CB7;}
	.st1{fill:#EF4044;}
	.st2{fill:#FFFFFF;}
</style>
<g id="XMLID_2_">
	<g id="XMLID_47_">
		<rect id="XMLID_176_" x="0.2" y="0" class="st0" width="127.7" height="283.1"/>
		<rect id="XMLID_175_" x="127.9" y="0" class="st1" width="184.1" height="283.1"/>
		<path id="XMLID_174_" class="st2" d="M75.6,55.9v4.4C76.4,58.4,76,56.8,75.6,55.9"/>
		<path id="XMLID_169_" class="st2" d="M84.3,31.9c0.1,0-0.1-0.6,0.5-0.7c0.5,0,1.3,0.4,1.4,0.9c0.1,0.6-0.3,1.9,1.4,2.1
			c0,0,0,0.3,0,0.6h0c0,0.3-0.1,0.7-0.3,0.9c0.1,0,0.2,0,0.3,0c2.4,0.1,3.8-0.1,4.4-0.8c0,0,0.4-0.4,0.6-0.9
			c0.6-1.3,0.7-2.4,0.4-3.3h0c0-0.1,0-0.1-0.1-0.2c0-0.1-0.1-0.2-0.2-0.3c-0.5-1-1.9-2.2-3.7-2.7c-0.1,0-0.2,0-0.4,0c0,0,0,0,0,0
			c0,0,0,0,0.1,0l0,0h0c0,0,0.4,0,0.4,0c1.3,0.2,3.5,1.4,3.9,2.7c0.4-0.3,0.8-1,0.9-1.6h0c0-0.1-0.1-0.9,0.3-1.6
			c0.1-0.2,0-0.4-0.2-0.5c-0.2-0.1-0.4,0-0.5,0.2c-0.3,0.7-1.1,0.3-0.8-0.4c0.1-0.2,0-0.4-0.2-0.5c-0.2-0.1-0.4,0-0.5,0.2
			c-0.3,0.6-1,0.3-0.7-0.3c0.1-0.2,0-0.4-0.2-0.5c-0.2-0.1-0.4,0-0.5,0.2c-0.3,0.7-1.1,0.3-0.8-0.4c0.1-0.2,0-0.4-0.2-0.5
			c-0.2-0.1-0.4,0-0.5,0.2c-0.2,0.5-0.4,0.8-0.6,1c1.4,0.3,2.9,1.1,3.9,2.1c0,0,0.4,0.4,0.4,0.5c0,0,0,0,0,0c0,0,0,0,0,0
			c0,0.1,0.1,0.1,0,0.1c0,0,0,0,0,0c-0.1-0.2-0.3-0.3-0.5-0.4c-1.6-1.3-3-1.9-4.2-2.1c-0.8,0.1-0.6,1-0.5,1.5
			c-1.3-0.3-2.3,0.7-2.4,1.6c0,0.3,0.1,0.7,0.2,1.1c0,0,0,0.1,0,0.1c-0.1,0-0.2-0.1-0.3-0.4c-0.1-0.2-0.1-0.4-0.2-0.7
			c-1.1,0.1-2,0.6-2,1.6C83.3,31.1,84,31.9,84.3,31.9 M88,30.4c0.3-0.3,0.4,1.1,1.5,0.7C88.7,32,87.6,31,88,30.4 M87.9,29.7
			c0.4-0.3,0.8-1.1,1.5-0.7c0.3,0.2,0.6,0.5,0.9,0.7c0.3,0.2,0.7,0.5,0.9,0.8c0.2,0.4-0.3,1.3-0.9,0.5c-0.4-0.6-0.9-1.7-1.8-1.3
			c-0.7,0.4-1.2,0.9-1.3,0.4C87.1,29.8,87.6,29.8,87.9,29.7 M84.9,29.9c-0.2,0.4-0.8,0.4-0.8,0.9C83.6,30.3,84.5,29.4,84.9,29.9"/>
		<path id="XMLID_168_" class="st2" d="M113.3,76.9c-0.7-0.9-2.7-0.4-2.7-0.4c1-3.1-1.8-3.9-1.8-3.9c-1-0.3-1.7-0.1-2.1,0.2
			c0,0,0,0,0,0c0,0,0,0,0,0c-0.1,0.1-0.1,0.1-0.2,0.2c-0.3,0.3-0.4,0.6-0.4,1c0,0.8,0.7,1.5,1.5,1.5c0.3,0,0.6-0.1,0.9-0.3
			c0.3-0.2,0.5-0.5,0.6-0.9c0.4,0.3,0.5,0.7,0.5,0.7c0.8,2.7-2.2,3.6-2.2,3.6c-6.6,2-10.6-1.4-10.6-1.4l1.2-0.6
			c0.4-0.2,0.8-0.2,1-0.2c0,0.1,0,0.1,0,0.2c0,0.7,0.6,1.3,1.3,1.3c0.7,0,1.3-0.6,1.3-1.3c0-0.2-0.1-0.5-0.2-0.6l0,0
			c-0.1-0.1-0.1-0.1-0.1-0.1c-0.8-1.2-3.4-0.4-3.4-0.4c0.9-2.2,0.1-3.8,0.1-3.8c-0.5-0.8-0.4-1.1-0.4-1.1c0-0.8-0.2-0.8-0.2-0.8
			c-0.4-0.6-1.1-0.3-1.1-0.3c-1.1,0.2-1.3-0.2-1.3-0.2c-0.9-0.6-1.3-0.2-1.3-0.2c-0.4,0.3,0.1,0.9,0.1,0.9c-0.9,0-1.2,1.2-1.2,1.2
			c-0.4,2,1.3,2.2,1.3,2.2c1.2,0.1,1.2-0.9,1.2-0.9c0.1-0.9-1.2-1-1.2-1c0.2-0.5,0.6-0.5,0.6-0.5c1.4-0.3,2,1.2,2,1.2
			c1.1,1.8-0.3,3.4-0.3,3.4c-0.2,0.2-0.5,0.1-0.5,0.1c-0.8-0.3-1.9-1.2-1.9-1.2c0,0-0.1,0-0.1-0.1h-0.5c-0.5,0-1.1,0.2-1.4,0.3
			c0.5,0.6,2.3,2,2.3,2c-1.3,1-2.1,0.3-2.1,0.3c-0.6-0.7-0.5-1.8-0.4-2.3c-0.1,0-0.1,0-0.1,0.1c-0.6,0.3-1.2,0.5-1.8,0.8
			c0.6,1.1,1.6,2.7,1.6,2.7c-1.5,0.6-1.8-1.5-1.9-2.6c-0.3,0.1-0.6,0.2-0.9,0.3c0.1,0.2,0.1,0.4,0.1,0.4c0.1,1.1,1.1,2.5,1.1,2.5
			c-1.1-0.2-1.7,0.5-1.7,0.5c-0.7,0.6-0.7,1.4-0.6,1.7c0,0.4,0.4,0.7,0.8,0.7c0.4,0,0.8-0.3,0.8-0.8c0-0.4-0.3-0.7-0.7-0.8
			c0.3-0.8,1.1-0.2,1.1-0.2c1.2,1-0.7,2.2-0.7,2.2c-1.3,0.9-2.5-0.8-2.5-0.8c1.4-2.4,1.6-4.1,1.6-5.2c-0.5,0.2-0.9,0.3-1.4,0.5
			c0.7,2.2-0.9,3.5-0.9,3.5c-0.4-0.3-0.5-1.5-0.5-1.5c-0.1-0.5-0.3-1-0.5-1.4c-0.4,0.1-0.8,0.2-1.2,0.3c0.5,1.4,0.7,3.4,0.7,3.4
			c-0.2,0.3-1,0.4-1,0.4c-1.1,0.1-0.5-0.5-0.5-0.5c0.5-0.5,0.4-0.8,0.4-0.8c-0.3-0.7-1.5-0.1-1.5-0.1c-1.6,0.9-1.1,1.8-1.1,1.8
			c0.2,0.6,1.8,1.1,1.8,1.1c-0.9,0.7-2.5,0.4-2.7,0.3c0-0.5-0.4-0.8-0.8-0.9c-0.1,0-0.1,0-0.1,0c-0.6-0.1-0.9,0.2-1,0.4
			c-0.1,0.1-0.1,0.2-0.2,0.3l-1-0.2c-0.7-0.1-1.1-2-1.3-3.7c-0.3,0-0.5,0.1-0.8,0.1c0.3,1.8,0.6,3.4,0.6,3.4c-0.3,0-1.8-1-1.8-1
			c-1.8-1.1-3-0.7-3-0.7c-0.9,0.2-1.6,0.9-1.6,1.9c0,1,0.9,1.9,1.9,1.9c1,0,1.9-0.8,1.9-1.8c0.7,0.3,1.3,0.7,1.3,0.7
			c1.7,1.1,3.3,1.3,3.7,1.3c0.1,0.6,0.7,1.1,1.3,1.1c0.5,0,1-0.3,1.2-0.7c3.6-0.1,5-1.7,5-1.7c0.4-0.5,0.5-0.2,0.5-0.2
			C86.4,85.1,89,84,89,84c0.5-0.2,0.6,0.1,0.6,0.1c0.5,0.8,1.3,0.4,1.3,0.4c1-0.5,0.4-1.2,0.4-1.2c-0.3-0.4,0.1-0.3,0.1-0.3
			c1.2,0.2,1.5-0.5,1.5-0.5c0.2-0.5-0.6-1-0.6-1c-0.2-0.3,0.2-0.5,0.2-0.5C93.2,80.4,93,80,93,80c0.9,0,0.8-0.4,0.8-0.4
			c0-0.4-1.1-0.3-1.1-0.3c-0.9-0.1-0.7-0.5-0.7-0.5c1.3-0.1,3.3-0.6,3.3-0.6c2.9,2.4,7.3,3,7.3,3c0.1,0.4-0.1,1-0.1,1.1
			c0,0-0.1,0-0.1,0c-0.4,0-0.7,0.3-0.7,0.7c0,0.4,0.3,0.7,0.7,0.7c0.1,0,0.2,0,0.2,0c1.4-0.4,1.5-2.4,1.5-2.4c4,0.4,6.7-2.6,6.7-2.6
			c0.4-0.3,0.6-0.2,0.7-0.1c0,0,0,0,0,0c0.2,0.3,0.5,0.4,0.9,0.4c0.4,0,0.7-0.2,0.9-0.5c0.1-0.2,0.2-0.5,0.2-0.6v0v0
			C113.5,77.1,113.3,76.9,113.3,76.9"/>
		<path id="XMLID_167_" class="st2" d="M65.6,82c0.4-0.2,0.5-0.6,0.5-0.6c0.1-1.1-0.7-1.6-0.7-1.6c-0.5,0-0.9,0-1.4,0h0h0
			c-0.5,0-0.9,0-1.4,0c0,0-0.8,0.5-0.7,1.6c0,0,0.1,0.4,0.4,0.6c0,0-1,0.4-1,1.1c0,0-0.1,0.5,0.8,1.2c0,0,0.6,0.7,0.8,1.3
			c0,0,0.1,0.8,1.1,0.8c1.1,0,1.1-0.8,1.1-0.8c0.2-0.6,0.8-1.3,0.8-1.3c0.9-0.7,0.8-1.2,0.8-1.2C66.6,82.4,65.6,82,65.6,82"/>
		<polygon id="XMLID_166_" class="st2" points="73,77.6 73.5,77.5 73.2,76.9 		"/>
		<polygon id="XMLID_165_" class="st2" points="55.5,77.6 56,77.6 55.8,77 		"/>
		<path id="XMLID_164_" class="st2" d="M53.4,76.2C53.4,76.1,53.4,76.1,53.4,76.2l-0.2,0.8c0.2,0,0.3,0,0.4,0c0.1,0,0.1-0.1,0.2-0.1
			c0-0.1,0.1-0.1,0.1-0.2c0-0.1,0-0.3-0.1-0.3C53.7,76.2,53.6,76.2,53.4,76.2"/>
		<path id="XMLID_163_" class="st2" d="M61,76.8c-0.2,0-0.3,0.1-0.4,0.2c-0.1,0.1-0.2,0.4-0.2,0.7c0,0.3,0,0.6,0.1,0.7
			c0.1,0.1,0.2,0.2,0.4,0.2c0.2,0,0.3-0.1,0.4-0.2c0.1-0.1,0.2-0.4,0.2-0.7c0-0.3,0-0.5-0.1-0.7C61.3,76.9,61.2,76.8,61,76.8"/>
		<path id="XMLID_162_" class="st2" d="M67.5,76.8c-0.2,0-0.3,0.1-0.4,0.2c-0.1,0.1-0.1,0.4-0.1,0.7c0,0.3,0.1,0.6,0.2,0.7
			c0.1,0.1,0.2,0.2,0.4,0.2c0.2,0,0.3-0.1,0.4-0.2c0.1-0.1,0.1-0.4,0.1-0.7c0-0.3-0.1-0.5-0.2-0.7C67.9,76.8,67.7,76.8,67.5,76.8"/>
		<polygon id="XMLID_161_" class="st2" points="49.6,76.7 50.1,76.8 50,76.2 		"/>
		<path id="XMLID_160_" class="st2" d="M39.6,72.8l-0.3,0.8l0.1,0c0.2,0.1,0.3,0.1,0.4,0c0.1-0.1,0.1-0.1,0.2-0.2c0-0.1,0-0.2,0-0.3
			c0-0.1-0.1-0.1-0.1-0.2C39.8,72.9,39.7,72.8,39.6,72.8"/>
		<path id="XMLID_159_" class="st2" d="M41.7,73.7c-0.1,0.1-0.2,0.3-0.3,0.6c-0.1,0.3-0.1,0.6-0.1,0.7c0,0.2,0.1,0.3,0.3,0.3
			c0.2,0,0.3,0,0.4-0.1c0.1-0.1,0.2-0.3,0.3-0.6c0.1-0.3,0.1-0.5,0.1-0.7c0-0.2-0.1-0.3-0.3-0.3C41.9,73.6,41.8,73.6,41.7,73.7"/>
		<path id="XMLID_158_" class="st2" d="M44.5,74.4C44.5,74.4,44.5,74.4,44.5,74.4l-0.3,0.8c0.2,0.1,0.3,0.1,0.4,0.1
			c0.1,0,0.1,0,0.2-0.1c0-0.1,0.1-0.1,0.1-0.2c0-0.1,0-0.3,0-0.3C44.8,74.5,44.7,74.4,44.5,74.4"/>
		<path id="XMLID_157_" class="st2" d="M83.8,74.4c-0.1,0-0.2,0-0.4,0c0,0,0,0-0.1,0l0.2,0.8c0.2,0,0.3-0.1,0.3-0.1
			c0.1,0,0.1-0.1,0.1-0.2c0-0.1,0-0.2,0-0.3C83.9,74.5,83.9,74.4,83.8,74.4"/>
		<polygon id="XMLID_156_" class="st2" points="88.1,74.2 88.6,74 88.2,73.5 		"/>
		<path id="XMLID_134_" class="st2" d="M89.4,71.2c-0.3,0-0.5,0.1-0.5,0.1c-1,0.3-10,4.3-25,4.3c-15,0-24.1-4-25-4.3
			c0,0-0.2-0.1-0.5-0.1c-0.3,0-0.5,0.1-0.7,0.2l-3.1,2.4h0c0.9,0,1.9,0.5,1.9,0.5c8,3.5,17.2,4.9,27.4,5c10.2-0.1,19.4-1.5,27.4-5
			c0,0,1-0.5,1.9-0.5h0l-3.1-2.4C89.9,71.3,89.7,71.2,89.4,71.2 M60.9,75.9l0.6,0l-0.8,0.5h-0.1L60.9,75.9z M40.5,73.6
			c0,0.1-0.1,0.2-0.2,0.3c-0.1,0.1-0.2,0.1-0.4,0.1c-0.1,0-0.3-0.1-0.5-0.1l-0.1-0.1l-0.2,0.5c0,0.1,0,0.2,0,0.2
			c0,0,0.1,0.1,0.2,0.1l0,0l-0.1,0.2l-1.1-0.4l0.1-0.2l0,0c0.1,0,0.2,0,0.2,0c0,0,0.1-0.1,0.1-0.2l0.4-1.2c0-0.1,0-0.2,0-0.2
			c0,0-0.1-0.1-0.2-0.1l0,0l0.1-0.2l0.8,0.3c0.2,0.1,0.4,0.1,0.5,0.2c0.1,0,0.2,0.1,0.3,0.2c0.1,0.1,0.1,0.2,0.1,0.3
			C40.6,73.4,40.5,73.5,40.5,73.6 M43,74.9c-0.1,0.3-0.3,0.5-0.5,0.6c-0.3,0.1-0.6,0.2-0.9,0c-0.2-0.1-0.4-0.2-0.6-0.3
			c-0.2-0.2-0.2-0.3-0.3-0.5c0-0.2,0-0.4,0-0.5c0.1-0.2,0.2-0.3,0.3-0.5c0.2-0.1,0.3-0.2,0.5-0.3c0.2,0,0.4,0,0.6,0.1
			c0.4,0.1,0.6,0.3,0.7,0.6C43,74.3,43.1,74.6,43,74.9 M45.1,75.9c0.1,0.2,0.1,0.4,0.2,0.4c0,0.1,0.1,0.1,0.2,0.1l0,0.2l-0.6-0.2
			c0-0.1-0.1-0.3-0.2-0.6c0-0.2-0.1-0.3-0.1-0.3c0,0,0-0.1-0.1-0.1c0,0-0.1-0.1-0.2-0.1l-0.1,0.5c0,0.1,0,0.2,0,0.2
			c0,0,0.1,0.1,0.2,0.1l0,0l0,0.2L43.1,76l0-0.2l0,0c0.1,0,0.2,0,0.2,0c0,0,0.1-0.1,0.1-0.2l0.3-1.2c0-0.1,0-0.2,0-0.2
			c0,0-0.1-0.1-0.2-0.1l0,0l0-0.2l0.8,0.2l0.2,0c0.2,0.1,0.3,0.1,0.4,0.1c0.1,0,0.2,0.1,0.2,0.2c0.1,0.1,0.1,0.2,0.1,0.2
			c0,0.1,0,0.2,0,0.3c-0.1,0.3-0.3,0.4-0.6,0.4C45,75.5,45,75.6,45.1,75.9 M48.6,77.3l-1.9-0.4l0-0.2h0c0.1,0,0.2,0,0.2,0
			c0,0,0.1-0.1,0.1-0.2l0.3-1.2c0-0.1,0-0.2,0-0.2c0,0-0.1-0.1-0.2-0.1l0,0l0-0.2l1.1,0.2l0,0.2l0,0c-0.1,0-0.2,0-0.2,0
			c0,0-0.1,0.1-0.1,0.2l-0.2,1.2c0,0.1,0,0.1,0,0.2c0,0,0,0.1,0.1,0.1c0,0,0.1,0.1,0.2,0.1c0.2,0,0.3,0,0.4-0.1
			c0.1-0.1,0.2-0.2,0.3-0.3l0.2,0L48.6,77.3z M51,77.8l-1-0.2l0-0.2c0.1,0,0.1,0,0.2,0c0,0,0,0,0-0.1c0,0,0-0.1,0-0.1l0,0l0-0.2
			l-0.6-0.1L49.4,77c0,0.1-0.1,0.1-0.1,0.1c0,0.1,0,0.1,0,0.1c0,0,0.1,0,0.2,0.1l0,0.2l-0.7-0.1l0-0.2c0.1,0,0.3-0.1,0.4-0.3
			l0.9-1.5l0.2,0l0.4,1.8c0,0.2,0.1,0.3,0.1,0.3c0,0,0.1,0.1,0.1,0.1L51,77.8z M54.6,78.3l-0.7-0.1c-0.1-0.1-0.1-0.3-0.3-0.6
			c-0.1-0.2-0.1-0.3-0.1-0.3c0-0.1-0.1-0.1-0.1-0.1c0,0-0.1,0-0.2-0.1l-0.1,0.5c0,0.1,0,0.2,0,0.2c0,0.1,0.1,0.1,0.2,0.1h0l0,0.2
			L52.2,78l0-0.2l0,0c0.1,0,0.2,0,0.2,0c0,0,0.1-0.1,0.1-0.2l0.2-1.3c0-0.1,0-0.2,0-0.2c0,0-0.1-0.1-0.2-0.1l0,0l0-0.2l0.9,0.1
			l0.2,0c0.2,0,0.3,0,0.4,0.1c0.1,0,0.2,0.1,0.2,0.1c0.1,0.1,0.1,0.1,0.2,0.2c0,0.1,0,0.2,0,0.3c0,0.2-0.2,0.4-0.5,0.5
			c0.1,0.1,0.2,0.2,0.3,0.5c0.1,0.2,0.2,0.4,0.2,0.4c0,0,0.1,0.1,0.2,0.1L54.6,78.3z M56.9,78.5l-1.1-0.1l0-0.2c0.1,0,0.2,0,0.2,0
			c0,0,0,0,0-0.1c0,0,0-0.1,0-0.1l0,0l0-0.2l-0.7-0.1l-0.1,0.1c0,0.1-0.1,0.1-0.1,0.2c0,0,0,0.1,0,0.1c0,0,0.1,0,0.2,0l0,0.2
			l-0.7-0.1l0-0.2c0.1,0,0.3-0.1,0.4-0.3l0.8-1.6l0.2,0l0.5,1.7c0.1,0.2,0.1,0.3,0.2,0.3c0.1,0,0.1,0.1,0.2,0.1L56.9,78.5z
			 M59.2,76.7l-1.3,1.7l0.5,0c0.1,0,0.2,0,0.3,0c0.1,0,0.1-0.1,0.2-0.1c0.1-0.1,0.1-0.1,0.1-0.3l0.2,0l-0.1,0.6l-1.9-0.1l0-0.1
			l1.3-1.7l-0.3,0c-0.2,0-0.4,0-0.4,0c-0.1,0-0.1,0.1-0.2,0.3l-0.2,0l0.1-0.6l1.8,0.1L59.2,76.7z M61.8,78.5
			c-0.2,0.2-0.5,0.3-0.9,0.3c-0.3,0-0.5-0.1-0.7-0.2c-0.2-0.1-0.3-0.3-0.4-0.4c-0.1-0.2-0.1-0.4-0.1-0.5c0-0.2,0.1-0.4,0.2-0.6
			c0.1-0.2,0.3-0.3,0.4-0.4c0.2-0.1,0.4-0.1,0.6-0.1c0.4,0,0.7,0.1,0.9,0.4c0.2,0.2,0.3,0.5,0.3,0.8C62.1,78,62,78.3,61.8,78.5
			 M64.9,76.8c-0.1,0-0.1,0-0.2,0c0,0-0.1,0.1-0.1,0.1c0,0,0,0.1,0,0.2l0,1.6h-0.2l-1.4-1.6l0,1c0,0.2,0,0.3,0.1,0.3
			c0.1,0,0.1,0.1,0.2,0.1v0.2h-0.8v-0.2c0.1,0,0.1,0,0.2,0c0.1,0,0.1-0.1,0.1-0.1c0,0,0-0.1,0-0.2l0-1.1c0-0.2-0.1-0.3-0.3-0.3v-0.2
			l0.7,0l1.2,1.3l0-0.8c0-0.2-0.1-0.4-0.3-0.4v-0.2l0.8,0V76.8z M68.5,78.4c-0.2,0.2-0.5,0.3-0.9,0.4c-0.3,0-0.5,0-0.7-0.1
			c-0.2-0.1-0.3-0.2-0.4-0.4c-0.1-0.2-0.1-0.4-0.2-0.5c0-0.2,0-0.4,0.1-0.6c0.1-0.2,0.2-0.3,0.4-0.4c0.2-0.1,0.4-0.2,0.6-0.2
			c0.4,0,0.7,0.1,0.9,0.3c0.2,0.2,0.3,0.5,0.3,0.8C68.8,77.9,68.7,78.2,68.5,78.4 M70.3,78.6l0-0.2l0,0c0.1,0,0.2,0,0.2-0.1
			c0,0,0-0.1,0-0.2l-0.1-1.3c0-0.1,0-0.2-0.1-0.2c0,0-0.1-0.1-0.2,0l0,0l0-0.2l1.1-0.1l0,0.2l0,0c-0.1,0-0.2,0-0.2,0.1
			c0,0,0,0.1,0,0.2l0.1,1.2c0,0.1,0,0.2,0,0.2c0,0,0,0.1,0.1,0.1c0,0,0.1,0,0.2,0c0.2,0,0.3-0.1,0.4-0.2c0.1-0.1,0.1-0.2,0.2-0.4
			l0.2,0l0.1,0.7L70.3,78.6z M73.6,78.3l0-0.2c0.1,0,0.2,0,0.2-0.1c0,0,0,0,0-0.1c0,0,0-0.1,0-0.1l0,0l-0.1-0.1l-0.7,0.1l0,0.1
			c0,0.1,0,0.1,0,0.2c0,0.1,0,0.1,0.1,0.1c0,0,0.1,0,0.2,0l0,0.2l-0.7,0.1l0-0.2c0.1,0,0.2-0.1,0.3-0.4l0.5-1.7l0.2,0l0.9,1.6
			c0.1,0.1,0.2,0.3,0.2,0.3c0.1,0,0.1,0,0.2,0l0,0.2L73.6,78.3z M77.2,76.2c0-0.1-0.1-0.2-0.1-0.2c-0.1-0.1-0.1-0.1-0.1-0.1
			c0,0-0.1,0-0.2,0l-0.3,0.1l0.1,0.7l0.2,0c0.1,0,0.1,0,0.2-0.1c0,0,0-0.1,0-0.2l0.2,0l0.1,0.7L77,77c0-0.1-0.1-0.2-0.1-0.2
			c0,0-0.1,0-0.2,0l-0.2,0l0.1,0.6c0,0.1,0,0.2,0.1,0.2c0,0,0.1,0,0.2,0l0,0l0,0.2L75.9,78l0-0.2l0,0c0.1,0,0.2,0,0.2-0.1
			c0,0,0-0.1,0-0.2l-0.2-1.3c0-0.1,0-0.2-0.1-0.2c0,0-0.1,0-0.2,0l0,0l0-0.2l1.8-0.3l0.1,0.6L77.2,76.2z M79.7,75.6l0.1,0.7
			c0,0.1,0,0.3,0,0.4c0,0.1,0,0.2-0.1,0.3c0,0.1-0.1,0.2-0.3,0.3c-0.1,0.1-0.3,0.1-0.4,0.2c-0.2,0-0.3,0-0.5,0
			c-0.1,0-0.3-0.1-0.3-0.1c-0.1-0.1-0.1-0.1-0.2-0.2c0-0.1-0.1-0.2-0.1-0.3l-0.2-0.8c0-0.1,0-0.2-0.1-0.2c0,0-0.1,0-0.2,0l0-0.2
			l1.1-0.2l0,0.2l0,0c-0.1,0-0.2,0.1-0.2,0.1c0,0.1,0,0.1,0,0.2l0.2,0.8c0,0.1,0.1,0.3,0.1,0.3c0,0.1,0.1,0.1,0.2,0.2
			c0.1,0.1,0.2,0.1,0.3,0c0.1,0,0.2-0.1,0.3-0.2c0.1-0.1,0.1-0.2,0.1-0.3c0-0.1,0-0.2,0-0.4l-0.1-0.7c0-0.2-0.2-0.3-0.4-0.3l0-0.2
			l0.8-0.2l0,0.2c-0.1,0-0.1,0-0.1,0.1c0,0-0.1,0.1-0.1,0.1C79.7,75.5,79.7,75.5,79.7,75.6 M80.7,77.1l0-0.2l0,0
			c0.1,0,0.2-0.1,0.2-0.1c0,0,0-0.1,0-0.2l-0.3-1.2c0-0.1-0.1-0.2-0.1-0.2c0,0-0.1,0-0.2,0l0,0l0-0.2l1.8-0.4l0.2,0.5l-0.2,0
			c-0.1-0.1-0.1-0.2-0.2-0.2c-0.1,0-0.1-0.1-0.1-0.1c0,0-0.1,0-0.2,0L81.1,75l0.2,0.7l0.2,0c0.1,0,0.1-0.1,0.2-0.1c0,0,0-0.1,0-0.2
			l0.2,0L82,76l-0.2,0c0,0,0,0,0,0c0-0.1,0-0.1-0.1-0.1c0,0-0.1-0.1-0.2,0l-0.2,0l0.1,0.5c0,0.1,0,0.2,0.1,0.2c0,0,0,0.1,0.1,0.1
			c0.1,0,0.1,0,0.2,0c0.1,0,0.2-0.1,0.3-0.1c0.1-0.1,0.1-0.1,0.1-0.2c0-0.1,0-0.2,0-0.3l0.2,0l0.1,0.7L80.7,77.1z M84.7,76.1
			c-0.1-0.1-0.2-0.2-0.5-0.4c-0.1-0.1-0.2-0.2-0.2-0.2c0,0-0.1,0-0.1-0.1c0,0-0.1,0-0.2,0l0.1,0.5c0,0.1,0.1,0.2,0.1,0.2
			c0,0,0.1,0,0.2,0l0,0l0.1,0.2L83,76.5l0-0.2l0,0c0.1,0,0.2-0.1,0.2-0.1c0,0,0-0.1,0-0.2l-0.3-1.2c0-0.1-0.1-0.2-0.1-0.2
			c0,0-0.1,0-0.2,0l0,0l0-0.2l0.8-0.2l0.2-0.1c0.2,0,0.3-0.1,0.4-0.1c0.1,0,0.2,0,0.3,0c0.1,0,0.2,0.1,0.2,0.1
			c0.1,0.1,0.1,0.1,0.1,0.2c0.1,0.2,0,0.5-0.3,0.6c0.1,0,0.2,0.1,0.5,0.3c0.2,0.2,0.3,0.2,0.4,0.3c0.1,0,0.1,0,0.2,0l0,0.2
			L84.7,76.1z M85.7,75.8l0-0.1l0.6-2.1l-0.3,0.1c-0.2,0.1-0.3,0.1-0.4,0.2c-0.1,0.1-0.1,0.2-0.1,0.4l-0.2,0.1l-0.1-0.6l1.7-0.6
			l0,0.1l-0.6,2.1l0.5-0.2c0.1,0,0.2-0.1,0.3-0.1c0.1,0,0.1-0.1,0.1-0.2c0-0.1,0-0.2,0-0.3l0.2-0.1l0.2,0.6L85.7,75.8z M88.9,74.7
			l-0.1-0.2c0.1,0,0.1-0.1,0.2-0.1c0,0,0-0.1,0-0.1c0,0,0,0-0.1-0.1l0,0l-0.1-0.1l-0.6,0.2l0,0.1c0,0.1,0,0.1,0,0.2
			c0,0.1,0,0.1,0.1,0.1c0,0,0.1,0,0.2,0l0.1,0.2l-0.7,0.2l-0.1-0.2c0.1-0.1,0.2-0.2,0.2-0.4l0-1.8l0.2-0.1l1.2,1.3
			c0.1,0.1,0.2,0.2,0.3,0.2c0.1,0,0.1,0,0.2,0l0.1,0.2L88.9,74.7z"/>
		<path id="XMLID_133_" class="st2" d="M53.1,41c-0.3,0.2-0.7,0.4-1.1,0.7h2.3C53.8,41.4,53.4,41.2,53.1,41"/>
		<path id="XMLID_132_" class="st2" d="M68.2,41.6c-0.3-0.2-0.8-0.4-1-0.4c-0.1,0-0.1,0-0.1-0.1c-0.4-0.2-0.9-0.3-1.3-0.4h-4.7
			c-0.4,0.1-0.8,0.2-1.3,0.4c0,0-0.1,0-0.1,0.1c-0.2,0.1-0.6,0.3-1,0.4c0,0-0.1,0-0.1,0.1h9.7C68.2,41.6,68.2,41.6,68.2,41.6"/>
		<path id="XMLID_131_" class="st2" d="M74.3,41C74.3,41,74.3,41,74.3,41C74.3,41,74.3,41,74.3,41c-0.3,0.1-0.6,0.4-1.1,0.7h2
			C74.9,41.4,74.6,41.2,74.3,41"/>
		<path id="XMLID_130_" class="st2" d="M51.9,60.3v-5C51.5,56.2,50.9,58.3,51.9,60.3"/>
		<path id="XMLID_129_" class="st2" d="M63.4,42.3H51.1c0,0,0,0,0,0c0,0.1,0.1,0.2,0.1,0.3c0.1,0.1,0.2,0.3,0.5,0.6h11.4L63.4,42.3z
			"/>
		<path id="XMLID_128_" class="st2" d="M62.9,44H52.2c0.2,0.3,0.4,0.6,0.5,1h9.9L62.9,44z"/>
		<path id="XMLID_127_" class="st2" d="M62.1,46.6l0.3-1H53c0.1,0.3,0.2,0.6,0.3,1H62.1z"/>
		<path id="XMLID_126_" class="st2" d="M61.9,47.3h-8.5c0.1,0.3,0.1,0.6,0.1,1h8L61.9,47.3z"/>
		<path id="XMLID_125_" class="st2" d="M53.4,51.6h4.5l-1.4-1h-2.9C53.6,50.9,53.5,51.2,53.4,51.6"/>
		<path id="XMLID_124_" class="st2" d="M53.7,48.9C53.7,48.9,53.7,49,53.7,48.9c0,0.2,0,0.5,0,1h1.9l-1.4-1H53.7z"/>
		<path id="XMLID_121_" class="st2" d="M63.5,51.9l5.5,7.8v3.9c0.4,0,0.7,0,0.8,0c0.1,0,0.1,0,0.2,0V53.2h0.7v10.2
			c0.4,0,0.7-0.1,1-0.1V53.2h0.7v9.9c0.4-0.1,0.7-0.3,1-0.4v-9.5h0.7v9.1c0.4-0.3,0.7-0.5,0.9-0.7c0,0,0-0.1,0.1-0.1v-6.8
			c-0.3-0.5-0.6-1-0.8-1.5h0c-0.1-0.4-0.3-0.7-0.4-1h-5.7l-1.3,0.9l-2.5-0.9L63.5,51.9l9.3-3h-7.2l-0.2-0.6h8.1c0-0.3,0.1-0.7,0.2-1
			H65l-0.2-0.7h9c0.1-0.3,0.2-0.7,0.4-1h-9.7L64.3,45h10.2c0.2-0.4,0.4-0.7,0.5-1H64l-0.2-0.7h11.6c0.3-0.5,0.6-0.8,0.7-0.9
			c0.1-0.1,0.1-0.1,0.1-0.1H63.5l0-0.1v0.1v1V44v1v0.7v1v0.7v1L63.5,51.9L63.5,51.9L63.5,51.9z M68.3,53.2H69v6.2l-0.7-1.9V53.2z"/>
		<path id="XMLID_120_" class="st2" d="M65.7,64.6c0.3-0.2,0.6-0.4,1-0.5v-6.1l-1-0.8V64.6z"/>
		<path id="XMLID_119_" class="st2" d="M64,66.6c0.1-0.2,0.3-0.5,0.4-0.6l0-0.1c0.2-0.3,0.4-0.5,0.6-0.8v-8.5l-1-0.8V66.6z"/>
		<path id="XMLID_118_" class="st2" d="M62.4,64.9c0.3,0.3,0.6,0.6,0.8,1l0,0.1c0,0.1,0.1,0.1,0.1,0.2V55.6l-1,0.8V64.9z"/>
		<path id="XMLID_117_" class="st2" d="M60.7,64c0.3,0.1,0.7,0.3,1,0.5v-7.6l-1,0.7V64z"/>
		<path id="XMLID_116_" class="st2" d="M67.4,63.8c0.3-0.1,0.7-0.2,1-0.2v-4.4l-1-0.8V63.8z"/>
		<path id="XMLID_115_" class="st2" d="M59.1,63.6c0.3,0,0.6,0.1,1,0.2v-5.7l-1,0.8V63.6z"/>
		<path id="XMLID_112_" class="st2" d="M53.5,62.2v-9h0.7v9.4c0.3,0.2,0.6,0.3,1,0.4v-9.8h0.7v10c0.3,0.1,0.6,0.1,1,0.2V53.2h0.7
			v10.3c0.1,0,0.3,0,0.4,0c0.1,0,0.3,0,0.6,0v-4.2l-0.6,0.4l5.6-7.9h0l0,0l0,0l0,0l-2-3h-7.2l9.2,3l-3.4,1.2l-1.3-0.9h-5.6
			c-0.1,0.3-0.2,0.6-0.4,1c-0.1,0.2-0.2,0.5-0.4,0.8v7.3C52.7,61.5,53,61.9,53.5,62.2 M58.4,53.2h0.7v2.9L58.4,58V53.2z"/>
		<path id="XMLID_111_" class="st2" d="M69,51.6h4.6c-0.1-0.4-0.2-0.7-0.2-1h-3L69,51.6z"/>
		<path id="XMLID_110_" class="st2" d="M73.4,48.9h-0.7l-1.4,1h2c0-0.3,0-0.6,0-0.7C73.4,49.1,73.4,49,73.4,48.9"/>
		<path id="XMLID_99_" class="st2" d="M47.7,30.2c1.8,1,4.1,0.9,4.9,0.7c0.4-0.1,0.9-0.2,1.4-0.6c0.1,0,0.1-0.1,0.2-0.1
			c0,0,0.1,0,0.1-0.1c0.7-0.6,1.2-1.6,1.1-2.9c0,0,0-0.1,0.1-0.1c0.1,0,0.2,0.3,0.2,0.8c0,0.5-0.1,1.1-0.3,1.6c0,0.1,0,0.2,0,0.2
			c0,0.2,0.1,0.4,0.2,0.5c0.3,0.4,1.2,0.5,1.9,0.2c0,0,0.1,0,0.1,0c0,0.1-0.4,0.6-1.3,0.6c-0.2,0-0.3,0-0.5,0
			c0.5,0.8,1.7,1.3,3.1,1.2c0,0,0.1,0,0.1,0.1c0,0.1-0.3,0.2-0.8,0.2c-0.6,0-1.3-0.1-1.9-0.4c0.6,0.8,1.7,1.5,3.6,1.7
			c0.1,0.2-1.4,0-1.8-0.1c0.9,3.4,2.7,3,2.7,3.2c-0.5,0.2-0.9,0.8-0.5,1.5c1.9-0.7,3.3-0.7,3.8-0.7c0.4,0,1.9,0.1,3.8,0.8
			c0.2-0.3,0.2-0.6,0.1-0.9c-0.3-0.8-2.9-1.5-5.3-0.8c-0.1,0-0.2,0.1-0.3,0.2c0,0,0,0,0,0c0,0,0,0,0-0.1l0,0c0,0,0.3-0.2,0.3-0.2
			c1.1-0.6,3.3-0.8,4.5-0.2c0,0,0,0,0,0c1,0.5,1.9-0.8,1.6-1.5c0.8,0,1.3-0.4,1.4-1.2c-0.2,0.1-0.3,0.1-0.4,0.2l0,0
			c-0.3,0.1-0.5,0.1-0.6,0.1c0,0,0,0,0,0h0c0,0,0,0,0,0c0,0,0,0,0,0c0.1-0.1,0.2-0.1,0.3-0.2c1.4-0.8,2.1-2.4,2-2.9
			c-0.1,0.3-0.6,0.5-1,0.5c-0.2,0-0.4,0-0.4-0.1c0,0,0,0,0,0c0.2,0,0.3-0.1,0.5-0.2c0.5-0.4,1-1,1.2-1.6c-0.9-0.8-1.2-1.8-1.7-3.1
			c-0.2-0.5-0.6-1-1.2-1c0,0-0.2,0-0.3,0c-0.1,0-0.2,0-0.2,0c0,0,0,0,0,0c0.7-0.6,1.4,0,1.9,0.3c0.1-1.2,0.5-1.6,0.6-1.5
			c0,0,0,0.1,0,0.1c-0.9,2.6,0.8,5,2.2,5.8c1.8,1,5,1.1,7.2-0.7h0c-0.4,0.1-0.8,0.2-1.2,0.2c-0.4,0-0.8-0.1-0.8-0.2
			c0,0,0.1-0.1,0.1-0.1c0.3,0,0.6,0,0.8,0c3.1-0.8,3.2-4.6,2.7-4.8c0,0,0,0,0,0c-0.1,0.2-0.2,0.5-0.3,0.7c-0.2,0.4-0.4,0.6-0.5,0.6
			c0,0,0-0.1,0-0.1c0.7-1.2,0.6-2.1,0.3-3.3c-0.2-0.6-0.6-1.2-1.2-1.7c-1.6-1.1-4.7-1.3-6.4,0c-0.6-0.6-1.3-1-2.2-1.3
			c-0.2,1-1.3,2.2-2.2,2.9c-0.2,0.1-0.7,0.5-0.9,0.5c0,0-0.2,0,0-0.2c1.7-1,2.5-2.3,2.5-3.8v0c0-0.8-0.3-2.2-1.2-3.3
			c-1.5-1.6-5.5-1.9-7.4-0.3c-0.5,0.5-0.8,1.1-1,1.9c0.2-0.6,0.6-1.1,1.5-1.4c0.8-0.3,2.4-0.1,2.6,0.9c-1.4-1.4-3.9-0.4-4.3,2v0
			c0,0.2-0.1,0.2-0.1,0.2h0c-0.1,0-0.2,0-0.1-1.1c0-0.7,0.2-1.5,0.5-2.2c-3.1-0.6-6.8,1-6.8,5.6c0,0.6,0.3,1.3,0.9,1.9
			c0.1,0.1,0,0.2,0,0.2c-0.1,0-0.5-0.2-0.7-0.5c-0.3-0.4-0.6-1-0.7-1.5c-1.9-0.7-3.2-0.7-4.3-0.6c-1.1,0.1-2.7,1.1-3.2,1.8
			c-0.2,0.3-0.5,0.7-0.7,1.1c-0.4,0.7-0.7,1.7-0.6,2.8C45.5,27.9,46.4,29.5,47.7,30.2 M78.5,20.7c0.7,0.2,1.3,0.8,1.7,1.7
			c0.3,0.8,0.2,1.6,0,2c0,0,0,0,0,0c0,0,0,0,0,0c0.1-0.5,0-1.2-0.3-1.8c-0.1-0.3-0.5-0.9-1-1c0.3,0.4,0.5,0.8,0.6,1.1
			c0.2,0.4,0.2,0.7,0.2,0.8c0,0.9-0.4,1.9-0.8,2.3c0,0,0,0,0,0c0,0,0,0,0,0c0.5-1.1,0.5-2,0.1-2.9c0-0.1-0.1-0.2-0.1-0.3
			c-0.3-0.6-0.9-1.3-1.8-1.3c0.4,0.3,0.8,0.7,1,1.3c0.5,1.1,0.4,2.5-0.2,3c0,0,0,0,0,0c0,0,0,0,0,0c0-0.2,0-0.3,0-0.5
			c0-0.4,0-0.8-0.1-1.2c-0.5-2-2.1-2.7-3.3-1.5C74.3,22.2,75.6,19.8,78.5,20.7 M66.3,35C66,34.9,66,34.4,66,34.1
			c0.1-0.7,0.9-1,1.2-1.3C67.4,32.8,67.3,33.8,66.3,35 M66,33.2c-0.4-0.7,0.6-1.5,0.9-2.2C68.2,30.8,66.6,33,66,33.2 M69.3,17.3
			c0.1,1-0.5,1.3-0.6,1.3c0,0-0.1-0.1,0-0.1c0.3-0.7,0.2-1.8-0.4-2.4c-0.4-0.5-1.1-0.7-1.1-0.8C67.1,15.2,69,15.6,69.3,17.3
			 M66.5,27.4c0.9,0.4-0.5,2.2-0.6,2.5c0.2-0.1,0.9-0.9,1.2-0.6c0.5,0.4-1,2.3-1.3,2.4C63.9,29,66.4,28.2,66.5,27.4 M65.2,31.8
			c0.2,1.2,0.4,2.9-0.2,4c-0.3-0.1-0.1-0.7-0.1-0.9c0-1.4,0-2.8-0.4-3.9c-0.2-0.6-0.6-2.5-1.9-4.8C63.1,26.7,64.9,29.6,65.2,31.8
			 M56.8,25.5c0.9,1.5,3.3,3.4,6.4,4.2c1,0.3,1.5,3.6,0.7,5.2c-1,0-1.1-0.6-1.2-1.4c0.4,0.3,1,0.8,1,0c-0.4-0.3-2.5-0.9-1.9-1.8
			c0.3-0.5,1.5,1.5,1.8,0.9c0.2-1.4-4.1-1.8-3.9-3c0-0.6,3.4,1.6,3.8,1.6c0-0.7-5-2.7-6.5-5.4C56.8,25.7,56.7,25.5,56.8,25.5
			C56.8,25.5,56.8,25.5,56.8,25.5 M49.2,29.3c1.1-0.3,2.1-0.9,1.8-2c-0.1-0.3-0.3-0.6-0.8-0.6c-0.6-0.1-1.1,0.4-1.4,0.9
			c0.1-1,0.7-1.7,1.7-1.5c0.5,0.1,1.2,0.6,1.4,1.1C52.3,28.7,50.8,29.4,49.2,29.3 M49.3,21.8c1.4-0.5,2.8,0,3.6,0.8
			c2.3,2.3,1,5.4,0.3,5.6c0.5-1.3,0.7-3.3-1.4-3.8c-1.6-0.4-3.1,0.8-3.8,1.5c0.5-1.5,2.1-2.6,4.2-2.1c-0.4-1.2-2-1.8-3.9-0.7
			c-0.5,0.2-0.8,0.5-1.1,0.8C47.7,22.8,48.5,22.1,49.3,21.8"/>
		<path id="XMLID_81_" class="st2" d="M57.9,80.9c0,0-1.3-0.4-3,0.7c0,0-1.4,1-1.8,1c0,0,0.3-1.6,0.6-3.4c-0.3,0-0.5-0.1-0.8-0.1
			c-0.2,1.7-0.6,3.6-1.3,3.7l-1,0.2c0-0.1-0.1-0.2-0.2-0.3c-0.2-0.2-0.4-0.5-1-0.4c0,0,0,0-0.1,0c-0.4,0.1-0.8,0.5-0.8,0.9
			c-0.2,0-1.8,0.3-2.7-0.3c0,0,1.6-0.6,1.8-1.1c0,0,0.5-0.9-1.1-1.8c0,0-1.2-0.7-1.5,0.1c0,0-0.1,0.3,0.4,0.8c0,0,0.6,0.6-0.5,0.5
			c0,0-0.7-0.1-1-0.4c0,0,0.2-2,0.7-3.4c-0.4-0.1-0.8-0.2-1.2-0.3c-0.2,0.4-0.3,0.9-0.4,1.4c0,0-0.1,1.2-0.5,1.5
			c0,0-1.5-1.3-0.9-3.5c-0.5-0.1-1-0.3-1.4-0.5c-0.1,1,0.2,2.8,1.6,5.2c0,0-1.2,1.7-2.5,0.8c0,0-1.8-1.2-0.7-2.2
			c0,0,0.8-0.7,1.1,0.2c-0.4,0-0.7,0.4-0.7,0.8c0,0.4,0.3,0.8,0.8,0.8c0.4,0,0.7-0.3,0.8-0.7c0-0.3,0.1-1.1-0.6-1.7
			c0,0-0.7-0.7-1.7-0.5c0,0,1-1.3,1.1-2.5c0,0,0-0.2,0.1-0.4c-0.3-0.1-0.6-0.2-0.9-0.3c-0.1,1.1-0.4,3.1-1.9,2.6c0,0,1-1.6,1.6-2.7
			c-0.6-0.2-1.2-0.5-1.8-0.7c0,0-0.1,0-0.2-0.1c0.1,0.5,0.2,1.6-0.4,2.3c0,0-0.8,0.7-2.1-0.3c0,0,1.7-1.5,2.3-2
			c-0.4-0.1-0.9-0.3-1.4-0.3h-0.5c0,0-0.1,0-0.1,0.1c0,0-1.1,0.8-1.9,1.2c0,0-0.2,0.1-0.5-0.1c0,0-1.4-1.7-0.3-3.4
			c0,0,0.6-1.6,2-1.2c0,0,0.4,0,0.6,0.5c0,0-1.3,0.1-1.2,1c0,0,0,1,1.2,0.9c0,0,1.7-0.2,1.3-2.2c0,0-0.3-1.2-1.2-1.2
			c0,0,0.5-0.7,0.1-0.9c0,0-0.4-0.4-1.3,0.2c0,0-0.2,0.4-1.3,0.2c0,0-0.7-0.3-1.1,0.3c0,0-0.2,0.1-0.2,0.9c0,0,0.1,0.3-0.4,1.1
			c0,0-0.3,0.5-0.3,1.4c-0.3-0.3-0.7-0.4-1.1-0.5c-0.5-0.6-0.6-3.2-1.2-4.5c-0.1-0.3,0.3-1.6,0.3-3.1c4-0.8,5.5-3.9,5.9-5.3
			c0.6-2.2-0.2-4.4-0.3-5c0-0.1,0.1-0.1,0.1,0c0.2,0.3,0.3,0.7,0.4,1c1.9,0.1,3.2-0.2,4.2-0.5c0,0,0.1,0,0.1-0.1
			c0.1,0,0.1-0.1,0.2-0.1c0.2-0.1,0.3-0.1,0.5-0.2c0.1,0,0.1-0.1,0.2-0.1c2.8-1.4,4.1-3.7,4.8-5.1c-0.4-0.1-1.6-0.5-2-1.1
			c1,0.1,1.8,0.5,2.8,0.5c1.5,0,2.5-0.8,4.2-0.6c0,0.1,0.2,0.8,1.3,1.2c0,1,0.1,1.8,0.4,2.5c0.1,0.2,0.1,0.3,0.1,0.3s-1.3,1-0.9,1.8
			c0.1,0.2,0.2,0.4,0.3,0.6c-0.1,0-0.1,0-0.2,0c-0.2-0.1-0.4,0.2-0.7,0.7c-0.1,0.2-0.8,1.6-0.3,1.7c0.1,0,0.2,0,0.3,0
			c-0.3,1.4-0.2,3.3,0.9,5l0,0c0.1,0.1,1.9,3.1,6.7,3.1h0.1c0.5,0,4.7,0.1,6.3,2.9c0.1,0.2,0.4,0.6,0.8,0.6c0.4,0,0.7-0.5,0.8-0.6
			c1.5-2.8,5.8-2.9,6.3-2.9H71c4.9,0,6.7-3,6.7-3.1l0,0c0.6-0.9,0.9-1.8,1-2.6c1-0.5,0.9-2.7,0.9-3.1c0.3,0.4,0.8,1.5,2,1.7
			c-0.2,1-0.1,2.7,1,2.9c0.3,0,0.6-0.5,0.5-0.8c0.9,2.7,0.2,4.3,0.9,4.5c0.9,0,0.9-1.6,1-1.6c0.1,0.1,0.4,0.6,0.4,1.3
			c0,0.8-0.1,1.7,0.3,1.8c1.3,0.2,0.7-3.5,1.6-3.1c-0.2,1.6,0,2.5,0.7,2.8c0,0.7-0.1,1.5-0.4,1.5c-1.8,0.4-3.4-1-5-0.6
			c-0.1-0.1-0.2-0.1-0.2-0.1c-2.9-1.6-4.7-0.4-4.9-0.5c-0.8-0.7-1.1,0.4-1.4,0.2c-1.5-0.9-2.3,0.6-2.7,0.7c-0.4,0.1-1-0.8-1.7,0.9
			c-0.3,0.8-2,1.1-2.1,1.1c-0.7,0.1-0.8-0.4-0.8-0.4c-0.1-0.2-0.1-0.4-0.2-0.5c-0.1-0.1-0.1-0.2-0.2-0.3c-0.2-0.2-0.5-0.2-0.7-0.2
			c-0.5,0-0.9,0.4-0.9,1c0,0.2,0.1,0.4,0.2,0.6c0.1,0,0.2-0.2,0.4-0.2c0.4,0,0.7,0.3,0.7,0.7v0c0,0.8-1.1,1.5-1.1,1.5
			c-0.7,0.6-1.5-0.2-1.5-0.2c-0.5-0.4-0.8-0.4-0.8-0.4c-0.5,0-0.7,0.5-0.7,0.5s-0.2-0.5-0.7-0.5c0,0-0.3,0-0.8,0.4
			c0,0-0.9,0.8-1.5,0.2c0,0-1.2-0.8-1.1-1.5v0c0-0.4,0.3-0.7,0.7-0.7c0.2,0,0.4,0.2,0.4,0.2c0.1-0.2,0.2-0.4,0.2-0.6
			c0-0.5-0.4-0.9-0.9-1c-0.2,0-0.5,0-0.7,0.2c-0.1,0.1-0.2,0.2-0.2,0.3C59,68.6,59,68.8,58.9,69c0,0-0.2,0.5-0.8,0.4
			c-0.1,0-1.8-0.4-2.1-1.1c-0.7-1.7-1.3-0.9-1.7-0.9c-0.4-0.1-1.2-1.5-2.7-0.7c-0.2,0.1-0.5-1-1.4-0.2c-0.2,0.1-1.6-0.8-3.9,0.1
			c-0.1-0.3-0.9-0.4-1.1-0.5c-0.5-0.1-0.9-0.5-1.2-0.7c-0.6-0.3-1.7-0.1-2.4-0.2c-0.3,0-0.7-0.2-0.9-0.3c-1-0.6-2.1-1.3-2.7-2.2
			c-0.1-0.1-0.3-0.5-0.4-0.5c-0.3-0.4-0.4-0.6-0.7-1.3c-0.3-1.2,0.2-2.4,0.4-3.6c0.1-0.6,0.1-0.8,0.1-1.1c-0.9,0.2-2.1,0.3-3.6-0.2
			c0.4,1.3,0.4,2.6,0.3,3.6c0.6,0.4,0.9,1.1,1,1.5c0.1,0.6-0.2,1.2,0.1,1.7c0.5,0.7,1.7,1.4,2.4,1.9c0.2,0.2,3.5,2.7,3.9,2.8
			c0.5,0.1,0.7-0.3,1.2-0.2c0.1,0,0.2,0.1,0.4,0.2c0,0,0.3,0.3,0.7,0.6c-1,0.6-2.2,1.4-3.1,1.8c0,0-1.5,0.8-0.8,0.8c0,0,1,0,1.1,0.2
			c0,0-0.4,0.2-1.1,0.5c1.5,0.6,3.1,1,4.7,1.5c1-1,2.3-2.1,3.6-2.6c0,0,1.8,0.1,2.4-1.3c0.2-0.4,1,0.8,2.6-0.1
			c0.1-0.1,0.4,0.4,0.9,0.5c0.1,0-0.7,0.2-0.5,0.9c0,0.1-1.3,0-1.7,0.8c-0.1,0.2-3,0.2-5.5,2.3c0.5,0.1,0.9,0.2,1.4,0.3
			c0.8-0.6,1.8-1.1,3-1c0,0,1.5,0.1,2.2,1.9c1,0.1,1.9,0.3,2.9,0.4c0,0,0,0,0,0c0.3-0.1,1.6-0.8,1-1.6c0,0-0.3-0.4-0.9,0.1
			c0,0-0.4,0.3-0.5-0.2c0,0,0-0.3-0.2-0.5c0,0-0.3-0.4,0.3-0.2c0,0,0.5,0.1,0.9,0.1c0.5,0,0.9-0.4,0.9-0.9c0-0.5-0.4-1-0.9-1
			c0,0-0.1,0-0.1,0.1c0.1,0.1,0.1,0.2,0.1,0.3c0,0.2-0.2,0.4-0.3,0.3c-0.6-0.2-0.4-1.2,0.4-1.3c0,0,0.7,0,1.2,0.7
			c0,0,1.3,1.9,2.5,2.3c0.1,0-0.2,0.7,0.5,0.9c0.1,0,0,0.6,0.8,0.5c0,0,0.2,0.3,0.4,0.7c0.7,0,1.4,0,2,0c0.7,0,1.4,0,2,0
			c0.2-0.4,0.3-0.7,0.4-0.7c0.8,0.1,0.7-0.5,0.8-0.5c0.8-0.2,0.5-0.9,0.5-0.9c1.2-0.4,2.5-2.3,2.5-2.3c0.6-0.7,1.2-0.7,1.2-0.7
			c0.8,0,0.9,1.1,0.4,1.3c-0.2,0-0.3-0.1-0.3-0.3c0-0.1,0.1-0.2,0.1-0.3c0,0-0.1-0.1-0.1-0.1c-0.5,0-0.9,0.5-0.9,1
			c0,0.5,0.4,0.9,0.9,0.9c0.5,0.1,1-0.1,1-0.1c0.5-0.2,0.3,0.2,0.3,0.2c-0.2,0.2-0.2,0.5-0.2,0.5c-0.1,0.5-0.5,0.2-0.5,0.2
			c-0.6-0.5-0.9-0.1-0.9-0.1c-0.6,0.8,0.7,1.5,1,1.6c0,0,0,0,0,0c1-0.1,2-0.2,2.9-0.4c0.6-1.8,2.2-1.9,2.2-1.9c1.2-0.1,2.2,0.4,3,1
			c0.5-0.1,1-0.2,1.4-0.3c-2.5-2.1-5.4-2.1-5.5-2.3c-0.4-0.7-1.8-0.7-1.8-0.8c0.2-0.7-0.6-0.8-0.5-0.9c0.5-0.1,0.7-0.6,0.9-0.5
			c1.6,0.9,2.4-0.3,2.6,0.1c0.6,1.3,2.4,1.3,2.4,1.3c1.3,0.5,2.6,1.6,3.6,2.6c1.5-0.4,2.9-0.9,4.3-1.3c0,0,0,0,0-0.1
			c0-0.1-0.1-0.2-0.1-0.2c0,0,0-0.1,0-0.1l0,0c-0.1-0.1-0.1-0.2-0.2-0.4h0c-0.4-0.6-0.9-1.2-1.1-1.4c0,0,0,0,0,0
			c0,0-0.1-0.1-0.1-0.1c0,0,1.1-1.6,1.7-0.5c0.1,0.1-0.1,0.5-0.7,0.5c0,0,0.8,1.2,1,2c0,0,0,0,0,0c0.3-0.1,0.6-0.2,0.7-0.2
			c0.1,0,0.1,0,0.2,0c-0.4-0.8-1-1.3-0.9-1.5c0.2-0.1,0.7,0.2,1.1-0.3c0.1-0.1,0.2-0.7,0.2-1.3c0.4,0.2,0.9,0.2,1.1,0.2
			c1.1,0,1.5-1.7,1.2-2.2c0.2-0.1,0.8-0.6,0.9-0.5c0.3,0.8,2.1,1.6,2-0.1c0.3,0.9,0.5,1.8,1.5,1.7c0.7-0.2,0.3-1.4,0.5-1.4
			c0.2,0.4,0.5,1.8,1.6,1.4c0.3-0.1,0.6-0.4,0.6-0.8c0.1-1.3-3.8-8.4-4.1-11.5c-0.1,0-0.1,0-0.2-0.1c-0.4-0.2-0.4-0.8-0.3-1.2
			c0,0,0-0.1,0-0.1c-0.5-0.1-1.2-0.5-1.3-1.8c0-1.2,0.5-1.7,0.6-1.7c0,0,0.1,0.1,0,0.1c-0.3,0.9-0.5,2,0.2,2.6
			c0.1,0.1,0.4,0.2,0.7,0.3c0.2-0.4,0.5-0.6,0.5-0.6c0,0,0,0.1,0,0.1c-0.4,0.6-0.3,1.5,0,1.9c0.2,0.2,0.5,0.3,0.7,0.3
			c1.1-0.4,1.6-2.4,1.9-3.1c0.7,0.2-1.2,4.3,0.3,5.2c0.6-0.1,0.9-0.7,1.1-1.3c0.5,1.2-1.5,3.8-0.1,4.4c0.9,0.2,1.2-2,1.2-1.7
			c0.3,3.4-1.5,5.1-0.4,5.6c1,0.5,1.3-2.3,1.3-2c0,3.7-1.9,4.7-1.1,5.3c0.9,0.4,1.5-1.8,1.5-1.3c-0.1,3.3-1.7,4.1-1,5.2
			c0.8,1.2,2.4-2.1,2.5-1.5c0.1,0.8-1.8,4.6-0.7,4.8c0.9,0.2,1.2-1.1,1.3-1.3c2.8-9.4,2.9-18.6,2.7-21.7c-0.3-4.8-0.7-9.1-1.8-13.1
			c-0.7-2.4-2.1-7.4-5.3-8.1c-1.5-0.3-2.7,1.1-2.6,2.4c0,1.1,0.8,1.6,0.5,2.7c-0.4,0.7-0.8,1.5-1,2.3c-0.2,0.8,0.5,1.1,0.3,1.9
			c-1-0.1-1.5,0.7-2.9,0.4c-1.3,0.5-2.7,0.3-2.7,0.3c0,0,0,0,0.1,0c1.4,0,2.8-0.5,3-1.2c0.3-1,0.1-2.4-0.6-3
			c-0.8,0.2-1.2,0.9-4.1,0.7c-2.4-0.1-3,0.3-3.3,1.7c-0.1-0.2-0.2-0.4-0.1-0.7c0.1-0.8,0.9-1.3,1.8-1.4c0.2-0.3,0.2-0.6,0.2-1
			c-0.4,0-0.6,0-1.2,0c-1.1,0.2-2.7,0.8-3.1,1.9c0,0.1-0.1,0.4-0.1,0.6c0,0.2,0,0.4,0.1,0.5c0,0.1,0.1,0.2,0.1,0.4
			c0.4,0.8,1.3,1.2,3.2,1.3c0,0,0.1,0,0.1,0.1c0,0.1-0.4,0.2-0.9,0.1c0,0-1.8,0-2.6-0.9c-0.1,0.1-0.1,0.1-0.1,0.2
			c-0.5,0.5-1.4,1-2.1,1c-0.9,0-1.8-0.5-2.2-1c-1.1-1.5,0.3-4.2,0.3-5.2c-0.1-2.6-3.7-1.5-5-0.8c-1.6,0.8-2.8,2.2-3.9,3.5
			c-0.6,0.7-1.2,1.6-1.5,2.3c0.5,0.2,1.8,0.8,2.9,0.8l0.1,0c0.1,0,0.2,0,0.4,0c0.5,0,1.6-0.1,2.3-0.7c0.1-0.1,0.4-0.3,0.8-0.3
			c0.3,0,0.6,0.1,0.9,0.4c0.2,0.2,2.5,2,3.2,2.5c0.1,0.1,0.3,0.3,0.4,0.6c0,0.2,0,0.5-0.3,0.8c-0.2,0.2-1.3,1.5-2.1,3.3
			c-0.1,0.3-0.2,0.5-0.3,0.8c-0.3,1-0.5,2.5,0.9,3c0,0,1.5,0.4,1.4-2.1c0,0,0.2,1.6,1.4,1.5c0.5,0,0.9-0.5,0.8-1.6c0,0,0,0,0,0
			c-0.1-1-0.1-2.2,0.1-3.5c0-0.1,0-0.1,0-0.1c0,0,0,0.1,0.1,0.6c0.1,0.6-0.4,6.4,4.3,10.2c0,0-2-1-3.3-3.4c-0.8,0.5-1.9,1.5-1.4,3.6
			c0.3,0.7,0.8,1.4,1.2,1.6c0,0,0.1,0.1,0.1,0.1c0,0.1-0.3,0.3-0.7-0.1h0c-0.1-0.1-0.1-0.1-0.2-0.2c-0.2-0.2-0.3-0.5-0.4-0.7
			c-0.5-0.5-1-1-1.5-1.5l0,0c-0.4-0.8-0.2-3.1-2.4-3.1c0,0-0.1,0-0.2,0h0c-0.1,0-0.2,0-0.4,0.1c0,0-0.1,0-0.1,0
			c-0.6-2-0.4-3.3-0.4-3.5c0.5-2.9,2.5-5.3,2.7-5.6c0.1-0.1,0.2-0.2,0.2-0.4c0-0.1-0.1-0.2-0.1-0.2l0,0c-0.8-0.5-3-2.3-3.2-2.5l0,0
			c-0.2-0.2-0.3-0.2-0.5-0.2c-0.3,0-0.5,0.2-0.5,0.2c-0.9,0.7-2.1,0.9-2.7,0.9c-0.2,0-0.4,0-0.4,0h0c-1.3,0-2.9-0.8-3.2-1
			c-2.2-0.9-3.9-1-4.2-1c-0.3,0-2,0-4.2,1c-0.3,0.2-1.9,0.9-3.2,1h0c-0.1,0-0.2,0-0.4,0c-0.6,0-1.8-0.1-2.7-0.9l0,0
			c0,0-0.2-0.2-0.5-0.2c-0.2,0-0.4,0.1-0.5,0.2l0,0c-0.3,0.2-2.5,2-3.2,2.5l0,0c0,0-0.1,0.1-0.1,0.2c0,0.1,0.1,0.3,0.2,0.4
			c0.2,0.3,2.3,2.7,2.7,5.6c0,0.1,0.1,0.5,0,1.3c-0.2-0.6-0.4-1.1-0.5-1.5c-0.1-0.3-0.2-0.6-0.3-0.8l0,0c-0.3-0.5-0.8-0.9-1.3-1.1
			c-0.4-0.2-0.8-0.3-1.2-0.6c-0.6-0.4-1.2-0.8-1.6-1.6c0-1.5-0.8-2.6-0.8-2.6c0.2-0.1,1.1,0.5,1.2,2.2c1.1-1.1,1.6-2.7,2-4.5
			c0.8-1.1,3.1-0.7,3.9-0.5c0.2,0,0.6,0.1,0.8,0.2c0.2,0.2,0.3,0.6,0.6,0.7c0.4,0.1,0.8,0,1.2,0c0.1,0.2,0.2,0.4,0.3,0.6
			c0.1,0,0.2,0,0.3,0l0,0h0c1.2,0,2.9-0.8,3-0.9l0,0c0.1,0,0.1,0,0.2-0.1c-0.5-0.6-1.2-0.8-1.9-0.9c-0.8-0.1-1.3-0.8-2.1-1
			c-0.2,0-0.9-0.2-1.1-0.1c-1.8,0.2-3-0.4-4.7-0.6c-1.6-0.1-1.6,1-2.2,1.9c-0.2,0.3-0.5,0.7-0.7,1c-0.4,0.4-0.9,0.4-1.5,0.8
			c0,0,0,0-0.1-0.1c-0.1-0.6-0.3-1.4-0.7-2c0,0,0,0,0,0c0-0.1-0.1-0.1-0.1-0.2c-0.9-1.3-1.8-2.4-3.7-2.8c-0.4-0.1-0.4-0.2-0.7-0.4
			c-0.3-0.3-0.1-0.5,0-0.6c0.6-0.3,1.5-0.2,2.1-0.5c1.5-0.7,1-2,0.4-2.1c-0.8-0.1-2.1-0.5-2.4-0.7c-0.4-0.2-0.6-0.9-1.2-1.1
			c-0.5-0.1-0.8-0.1-1.3-0.1c-0.4,0.1-0.6,0.3-0.9,0.3c0.3-0.5,0.9-0.7,1.7-0.8c-0.7-0.2-0.4-1.3-1.1-1.5c-0.3,0-0.6,0.1-1.1,0.3
			c0-0.3-0.2-1.5-0.9-1.9c-0.5-0.3-0.7,0.2-0.7,0.5c0,0.3,0.8,0.6,0.9,1.8c-0.1,0.1-0.3,0.2-0.4,0.3c-0.1-0.5-0.3-1.2-0.8-1.5
			c-0.5-0.3-0.7,0.2-0.7,0.5c0,0.3,0.7,0.5,0.9,1.5c-0.2,0.1-0.3,0.3-0.5,0.4c-1-0.3-1.3-1-1.5-1c-0.3-0.1-0.8,0.1-0.5,0.6
			c0.2,0.5,1,0.8,1.5,1c-0.1,0.1-0.2,0.2-0.3,0.4c-1.2-0.2-1.4-1-1.7-1.1c-0.3-0.1-0.8,0.1-0.5,0.6c0.3,0.7,1.5,1,1.8,1.1
			c-0.2,0.3-0.3,0.6-0.2,0.8c-0.9-0.1-2.5,0.4-2.2,1.5c0.3,0.2,1.4-0.7,2.4-0.2c0.7,1,1.7,1.1,2,1.3c0.4,0.3,0.4,0.8,0.6,1.3
			c0.3,0.9,0.9,1.6,1.4,2.4c0.6,0.9,1.1,1.8,1.7,2.5c0.1,0.2,0.1,0.4,0.1,0.7c-0.7,1.1-2.7,2.3-3.5,3.1c-0.8,0.8-8.8,6.8-9.8,9.4
			c-0.2,0.6-0.3,1.3-0.3,2.1c-0.5,0.3-1.3,0.1-1.6-0.2c-0.5-0.6,0.5-1.2,0.3-2c-0.1-0.3-0.5-0.4-0.9-0.3c-0.6,0.2-0.7,1.4-0.4,2.1
			c0.1,0.2,0.4,0.5,0.2,0.6c-0.3,0.1-0.5-0.2-0.5-0.6c-0.2,0.1-0.3,0.4-0.2,0.7c0.2,0.6,0.9,0.6,1.1,0.7c0,0.3-0.4,0.4-0.7,0.1
			c-0.4,0.6,0.1,0.9,0.2,0.9c0.5,0.1,1-0.3,1.3-0.4c0.1,0.3-0.1,0.4-0.6,0.6c0.8,1,1.5-0.7,2.4-0.5c0.3,0.1,2.8,2.4,2.3,4.2
			c0,0.1-0.1,0.4-0.2,0.4c-0.6,0.7-1.5,1.2-2.1,1.9c-1.3,0.8,1.2,6,1,8.7c-0.2,1,0.9,0.8,1.5,2.5c-0.6,0-1.3,0.2-1.6,0.6
			c0,0,0,0.1-0.1,0.1l0,0c-0.1,0.2-0.2,0.4-0.2,0.6c0,0.7,0.6,1.3,1.3,1.3c0.7,0,1.3-0.6,1.3-1.3c0-0.1,0-0.1,0-0.2
			c0.3,0,0.7,0.1,1.1,0.2l1.2,0.6c0,0-4,3.4-10.6,1.4c0,0-3-1-2.2-3.6c0,0,0.2-0.4,0.5-0.7c0.1,0.4,0.3,0.7,0.6,0.9
			c0.2,0.2,0.5,0.3,0.9,0.3c0.8,0,1.5-0.7,1.5-1.5c0-0.4-0.2-0.8-0.4-1c-0.1-0.1-0.1-0.1-0.2-0.2c0,0,0,0,0,0c0,0,0,0,0,0
			c-0.4-0.3-1.1-0.5-2.2-0.2c0,0-2.9,0.8-1.8,3.9c0,0-1.9-0.4-2.7,0.4c0,0-0.3,0.3-0.2,0.7v0v0c0,0.2,0.1,0.4,0.2,0.6
			c0.2,0.3,0.5,0.5,0.9,0.5c0.4,0,0.7-0.2,0.9-0.4c0,0,0,0,0,0c0.1-0.1,0.3-0.2,0.7,0.1c0,0,2.7,3,6.7,2.6c0,0,0.1,2,1.5,2.4
			c0,0,0.1,0,0.2,0c0.4,0,0.7-0.3,0.7-0.7c0-0.4-0.3-0.7-0.7-0.7c0,0-0.1,0-0.1,0c0-0.1-0.2-0.7-0.1-1.1c0,0,4.3-0.6,7.3-3
			c0,0,2,0.6,3.3,0.6c0,0,0.2,0.5-0.7,0.5c0,0-1.1,0-1.1,0.3c0,0-0.1,0.4,0.8,0.4c0,0-0.1,0.4,0.6,0.8c0,0,0.5,0.2,0.2,0.5
			c0,0-0.9,0.5-0.6,1c0,0,0.2,0.7,1.4,0.5c0,0,0.4,0,0.1,0.3c0,0-0.6,0.6,0.4,1.2c0,0,0.8,0.4,1.3-0.4c0,0,0.1-0.3,0.6-0.1
			c0,0,2.6,1.2,3.9-0.8c0,0,0.1-0.3,0.5,0.2c0,0,1.3,1.6,5,1.7c0.2,0.4,0.7,0.7,1.2,0.7c0.7,0,1.2-0.5,1.3-1.1c0.4,0,2-0.1,3.7-1.3
			c0,0,0.6-0.4,1.3-0.7c0,1,0.9,1.8,1.9,1.8c1,0,1.9-0.9,1.9-1.9C59.5,81.8,58.8,81,57.9,80.9 M45.8,66.6c0,0,0,0.1,0,0.1
			c0,0,0,0,0,0c0,0,0,0-0.1,0c-0.1,0-0.2,0.1-0.4,0.1c-0.2,0-0.5,0-0.7-0.1c0,0.2,0.1,0.3,0.2,0.4c0,0,0,0,0,0c0,0,0,0,0,0
			c0.1,0,0.1,0.1,0.2,0.1c0.1,0,0.2,0.1,0.3,0.1c0,0.2-0.4,0.4-0.6,0.4c-0.4,0-0.7-0.5-0.8-0.7c0,0-0.1-0.1-0.1-0.1
			c0,0-0.1,0-0.1-0.1c-0.4-0.2-0.9-0.3-1.4-0.3c0.1-1,2.7-0.3,2.8-0.3C45.3,66.4,45.6,66.4,45.8,66.6C45.8,66.6,45.8,66.6,45.8,66.6
			 M85.6,68.9L85.6,68.9c0,0,0,0.1,0,0.1c-0.5,0-1.6-0.7-1.6-0.7c-0.1-0.1-0.6-0.4-1-0.2h0l0,0c-0.4,0.2-0.6,0.6-0.9,0.8
			c0-0.1-0.1-0.2-0.1-0.2c0,0,0,0,0,0c0-0.1,0-0.1,0-0.2v-0.1c0-0.1,0-0.1,0-0.2c0,0,0-0.1,0-0.1c0-0.1,0.1-0.1,0.1-0.2
			c0,0,0-0.1,0.1-0.1c0,0,0,0,0.1-0.1c0,0,0.1-0.1,0.1-0.1c0,0,0,0,0,0c0.2-0.1,0.5-0.2,0.8-0.1l0,0c0.4,0,0.8,0.2,1.1,0.4
			c0.4,0.3,1.1,0.4,1.5,0.4C85.9,68.4,85.7,68.7,85.6,68.9 M96.4,36.4c0.2-0.8,1.3-1.8,1.3-2.2c0-0.5-0.5-1-0.6-1.7
			c-0.1-1,0.7-2,1.7-1.8c0.7,0.1,1.1,0.7,1.5,1.2c0.2,0.2,0.4,0.4,0.5,0.5c1.2,1.4,2.1,4,2.7,6.1c1.7,6.1,2.5,15.7,0.5,26.3
			c-0.2,0.9-0.6,3.2-0.7,3c1.9-17.5,0.9-21.8,0.5-21.8c-0.3,0.1-0.6,2.2-1.6,1.5c-0.9-0.6,2.2-4.5,0.9-6.6c-0.3-0.3-0.5,0.5-1,0.3
			c-1.3-0.4,0.7-3.8,0.3-4.1c-0.3-0.3-1.3-0.4-1.3-1.7c0-0.6,0.4-1-0.1-1.5c-0.4-0.3-0.3,0.3-0.7,0.2c-0.6-0.6-0.1-1.4-0.3-1.8
			c-0.2-0.1-0.6,0.4-0.9,0.1c-0.4-0.3,0.2-0.8-0.2-1.1c-0.6,0.1-1.4,0.7-1.2,1.6c0.1,0.5,0.7,0.8,0.6,1.3c0,0.5-0.6,1-0.7,1.3
			c-0.8,1.9,0.6,2.3,0.4,2.9c-0.1,0.3-0.7,0.5-1.1,0.4C96.3,38.8,96.2,37.1,96.4,36.4 M93.9,40.2c0.3,0,0.6-0.1,0.9-0.2
			c0.3-0.1,0.5-0.4,0.8-0.4c0.1,0.1-0.1,0.2-0.2,0.3c-0.3,0.2-1,0.6-1.5,0.7c-0.9,0.2-1.8-0.1-2.1-0.7C92.4,39.8,93,40.3,93.9,40.2
			 M77.9,33.6c0,0-0.1,0-0.2,0c-0.7-0.4-2.1-0.4-3.2,0.2c-0.7,0.4-1.3,1.1-1.4,1.2c-0.1,0.1,1.2-2,3.4-2.2
			C77.8,32.8,78,33.5,77.9,33.6 M82.6,39.7c-0.3,0.5-0.7,1.2-1.4,1.3c-1.2,0.3-2.5-0.7-2.5-0.9c-0.1-0.1,1,0.5,2.1,0.4
			C81.5,40.5,82.1,40,82.6,39.7C82.6,39.6,82.7,39.6,82.6,39.7 M84.6,59.3c1,0.4,2.5,0.2,3.2-0.4c0,0,0.1,0,0.2,0
			c0.1,0.1,0,0.9-1.3,1.1c-2.2,0.2-3.7-1.9-3.5-1.8C83.2,58.3,83.8,59,84.6,59.3 M78.9,55.3C78.9,55.3,78.9,55.4,78.9,55.3
			c0.1,0.1,0.1,0.1,0.1,0.1c0,0,0,0.1,0,0.1c0,0,0,0.1,0,0.1c0,0,0,0.1,0,0.1v0.1c0,0.2,0,0.5,0,0.7c0,0,0,0.1,0,0.1c0,0,0,0,0,0
			c0,0.2,0,0.3,0,0.5c0.1,0.4,0,1-0.3,1.3c0,0.1-0.1,0.1-0.1,0.1c0,0-0.1,0.1-0.1,0.1c0,0,0,0,0,0c0,0-0.1,0-0.1,0.1c0,0,0,0,0,0
			c0,0-0.1,0-0.1,0c0,0,0,0,0,0c0,0-0.1,0-0.1,0h-0.1c0,0-0.1,0-0.1,0c0,0,0,0-0.1,0c0,0-0.1,0-0.1-0.1c0,0-0.1,0-0.1,0
			c-0.1,0-0.1-0.1-0.2-0.1c0,0,0,0-0.1-0.1c0,0-0.3-0.5,0.1-0.5c0.1,0.1,0.1,0.1,0.2,0.2c0,0,0,0,0,0c0,0,0.1,0,0.1,0.1c0,0,0,0,0,0
			c0,0,0.1,0,0.1,0c0,0,0,0,0,0c0,0,0.1,0,0.1-0.1c0,0,0,0,0,0c0,0,0-0.1,0-0.1c0,0,0,0,0,0c0,0,0-0.1,0-0.2c0,0,0,0,0-0.1
			c0,0,0-0.1,0-0.1c0,0,0-0.1,0-0.1c0,0,0-0.1,0-0.1c0.1-0.7,0-1.8,0.2-2.1c0,0,0-0.1,0.1-0.1c0,0,0,0,0,0c0,0,0.1,0,0.1,0h0h0
			C78.8,55.3,78.8,55.3,78.9,55.3C78.9,55.3,78.9,55.3,78.9,55.3 M76.3,52.3C76.3,52.3,76.3,52.3,76.3,52.3c0.2-0.1,0.4-0.2,0.7-0.3
			c0.1,0,0.2,0,0.4,0h0c0.1,0,0.3,0,0.4,0c0.1,0,0.3,0.5,0.4,1h0c0,0.1,0.2,0.8,0.5,1.1c0.2,0.2,0.1,0.7-0.4,0.6h0
			c-0.6-0.1-1.3-1.1-1-2.1c-0.2,0-0.3,0-0.5,0h0c-0.1,0-0.2,0-0.2,0.1c0,0,0,0-0.1,0c0,0-0.1,0-0.1,0.1c0,0-0.1,0-0.1,0.1
			c-0.2,0.1-0.2,0.4-0.4,0.4C75.8,52.8,76,52.5,76.3,52.3 M51.7,54.5c1.7-3,1.6-5.1,1.5-5.4c0-3.3-2.1-5.8-2.3-6.1
			c-0.2-0.3-0.3-0.5-0.2-0.7c0-0.3,0.3-0.5,0.3-0.5c0.5-0.3,1.5-1,1.9-1.2l0.2-0.1c0,0,0.1-0.1,0.2-0.1c0.1,0,0.2,0.1,0.4,0.2
			c0.4,0.3,1.2,0.9,2.5,0.9c0.2,0,0.5,0,0.7-0.1c0.7-0.1,1.8-0.7,1.9-0.7c0.4-0.2,0.8-0.4,1-0.5l0.1,0c1.9-0.8,3.5-0.8,3.9-0.8
			c0.4,0,2,0.1,3.9,0.8l0.1,0c0.2,0.1,0.6,0.3,1,0.5c0,0,1.2,0.6,1.8,0.7c0.3,0,0.5,0.1,0.7,0.1c1.3,0,2.1-0.6,2.5-0.9
			c0.2-0.1,0.3-0.2,0.4-0.2c0.1,0,0.1,0,0.2,0.1c0,0,0.1,0,0.2,0.1c0.4,0.3,1.4,0.9,1.9,1.2c0,0,0.3,0.2,0.3,0.5
			c0,0.2,0,0.4-0.2,0.7c-0.2,0.3-2.3,2.8-2.3,6c-0.1,0.4-0.2,2.5,1.5,5.5c0.1,0.2,1.9,3.6-0.1,6.6c-0.2,0.3-1.8,2.8-6,2.8
			c-0.4,0-3.8,0.1-4.9,2.2c0,0,0,0-0.1,0.1c-0.1,0.2-0.6,0.9-0.8,1.3c0,0.1-0.1,0.1-0.2,0.1c-0.1,0-0.2,0-0.2-0.1
			c-0.2-0.4-0.6-1.1-0.8-1.3c0-0.1-0.1-0.1-0.1-0.1c-1.2-2.2-4.6-2.2-4.9-2.2c-4.2,0-5.9-2.5-6-2.8C49.7,58,51.7,54.5,51.7,54.5
			 M50.7,50.7c0.2,0.2,0.4,0.7,0.5,1.4c0,0.1,0,0.1,0,0.2c0,0.1,0,0.1,0,0.2c0,0.1,0,0.1,0,0.2c0,0.1,0,0.1,0,0.2v0.2
			c0,0.1,0,0.2,0,0.3c0,0.1,0,0.1,0,0.2c0,0.1,0,0.1,0,0.2c0,0,0,0.1,0,0.1c0,0.1,0,0.2,0,0.3c0,0.1,0,0.1,0,0.2c0,0.1,0,0.1,0,0.2
			c0,0.1,0,0.1,0,0.1c0,0.1,0,0.1,0,0.2c0,0.1,0,0.2-0.1,0.3c0,0.1,0,0.1,0,0.2c0,0.1,0,0.1-0.1,0.2c0,0,0,0.1-0.1,0.1
			c0,0.1-0.1,0.2-0.1,0.2c0,0,0,0.1-0.1,0.1c0,0.1-0.1,0.1-0.1,0.2c0,0,0,0.1-0.1,0.1c0,0.1-0.1,0.1-0.2,0.2c0,0,0,0-0.1,0
			c0,0.1-0.1,0.1-0.1,0.1c0,0,0,0-0.1,0.1c-0.1,0-0.1,0.1-0.2,0.1c0,0,0,0,0,0c-0.1,0-0.1,0.1-0.2,0.1c0,0,0,0-0.1,0
			c-0.1,0-0.2,0-0.3,0c0-0.1,0-0.1,0-0.2c0-0.3,0.3-0.5,0.4-0.8c0.1-0.3,0.1-0.5,0.3-0.7c0.3,0,0.5,0.1,0.6-0.2
			c-0.4-0.3-0.4-1,0.1-1.6C51.3,52.6,50.5,50.9,50.7,50.7 M50.4,48.2c-0.3,0.1-0.4-1.4-2.2-1.1c-1,0.4-1.7,0.2-2.3-0.1
			C48.5,45.5,50.6,47,50.4,48.2 M35.4,33.3c-0.4-0.9,1.1-2.2,1.4-2.3c0.8-0.3,1.5,0.2,2.4,0.3c0.5,0.1,1.1,0,1.5,0
			c1,0.1,0.7,0.8,0.6,0.9c-0.8,0.2-1.3-0.4-2-0.5c-0.5-0.1-1.1,0.2-1.6,0.2c-0.4,0-0.8-0.3-1.2,0c0,0-0.6,0.5-0.5,1
			C36.1,33.4,35.6,33.6,35.4,33.3 M36.3,33.1c1.1,0.4,1.2-1,1.5-0.7C38.2,33.1,37.1,34.1,36.3,33.1 M38.4,36.3
			c1.7,0.1,3.4,0.2,4.5,0.8c0.1,0,0.1,0.1,0.1,0.1c0.3,0.2,1.2,0.9,1.6,2.3c-1.5-0.9-2-1.1-3.2-1.6C40.3,37.4,38.9,37.2,38.4,36.3
			 M29.7,74.5C29.7,74.5,29.7,74.5,29.7,74.5c-0.3-0.1-0.5-0.3-0.7-0.4c-0.2,0.3,0.2,0.6,0.4,0.9c0,0.1-0.1,0.1-0.3,0.2l0,0
			c-0.1,0-0.3,0-0.4,0h0c0,0,0,0,0,0c-0.4-0.2-0.4-0.7-0.4-1c0-0.3-0.2-0.7-0.6-1c0.7-0.5,1.9,0.7,2,0.8c0,0,0,0,0,0h0v0
			c0.2,0.1,0.4,0.2,0.5,0.4c0.1,0.1,0.1,0.1,0.1,0.2C30.2,74.6,30,74.6,29.7,74.5"/>
		<path id="XMLID_80_" class="st2" d="M152.5,268c-1.9,0.9-3.4,1.3-5.2,1.3c-4.1,0-6.1-2.9-6.1-7.3c0-4.2,2.1-7.1,6.4-7.1
			c2.1,0,3.5,0.5,4.6,1.2l-1.1,2c-0.8-0.5-1.9-0.9-3.4-0.9c-2.5,0-3.6,1.9-3.6,4.6c0,3.3,1.2,5.1,3.5,5.1c0.9,0,1.8-0.2,2.4-0.5V264
			h-1.9l-0.1-2h4.5V268z"/>
		<path id="XMLID_77_" class="st2" d="M163.7,264c0,3.4-1.7,5.3-4.7,5.3c-3,0-4.7-1.8-4.7-5.3c0-3,1.6-5.2,4.7-5.2
			C162,258.8,163.7,261.1,163.7,264 M160.9,264c0-2.4-0.7-3.3-2-3.3c-1.3,0-1.9,0.9-1.9,3.3c0,2.3,0.6,3.3,1.9,3.3
			C160.3,267.3,160.9,266.4,160.9,264"/>
		<path id="XMLID_74_" class="st2" d="M168.2,260c0.5-0.6,1.5-1.2,2.7-1.2c2.4,0,4.1,1.7,4.1,5.2c0,3.5-2.1,5.3-4.4,5.3
			c-1.4,0-2.3-0.6-2.9-1.4l-0.5,1.2h-1.4v-14.2h2.7v3.5L168.2,260z M168.4,266.3c0.4,0.6,1.1,1,1.8,1c1.2,0,2-0.9,2-3.3
			c0-2.4-0.8-3.2-2-3.2c-0.7,0-1.4,0.4-1.9,0.8V266.3z"/>
		<path id="XMLID_71_" class="st2" d="M177.8,269.1V261l-1.1-0.2V259h3.8v10.1H177.8z M177.7,254.9h2.7v2.4h-2.7V254.9z"/>
		<path id="XMLID_68_" class="st2" d="M185.2,264.8c0,1.6,0.9,2.5,2.6,2.5c1,0,2.1-0.4,2.9-0.9l0.5,1.9c-0.8,0.4-2.2,1-3.8,1
			c-3.1,0-5-1.9-5-5.3c0-3.1,1.5-5.2,4.7-5.2c3,0,4.3,2.3,4.3,4.8v1.2H185.2z M187.1,260.8c-1.3,0-1.9,1.2-1.9,2.4h3.7
			C188.9,261.9,188.5,260.8,187.1,260.8"/>
		<path id="XMLID_67_" class="st2" d="M199.2,261.3c-0.3-0.1-0.8-0.2-1.3-0.2c-0.7,0-1.4,0.3-1.8,0.7v7.3h-2.7V259h1.9
			c0.1,0.5,0.2,0.9,0.3,1.4h0.1c0.3-0.7,1.2-1.5,2.4-1.5c0.5,0,0.9,0.1,1.2,0.1C199.2,259.7,199.2,260.5,199.2,261.3"/>
		<path id="XMLID_66_" class="st2" d="M207,269.1v-6c0-1.5-0.6-2.2-1.8-2.2c-0.7,0-1.3,0.3-1.8,0.6v7.6h-2.7V259h1.8l0.4,1.1
			c0.6-0.7,1.7-1.4,3.2-1.4c2.5,0,3.5,1.5,3.5,4v6.2H207z"/>
		<path id="XMLID_63_" class="st2" d="M221,264c0,3.4-1.7,5.3-4.7,5.3c-3,0-4.7-1.8-4.7-5.3c0-3,1.6-5.2,4.7-5.2
			C219.3,258.8,221,261.1,221,264 M218.3,264c0-2.4-0.7-3.3-2-3.3c-1.2,0-1.9,0.9-1.9,3.3c0,2.3,0.6,3.3,1.9,3.3
			C217.6,267.3,218.3,266.4,218.3,264"/>
		<path id="XMLID_60_" class="st2" d="M234.1,259.8c-0.2-0.6-0.3-1.1-0.3-1.8v-3h2.7v14.2h-2.2L234,268c-0.4,0.6-1.4,1.3-2.7,1.3
			c-2.3,0-4.1-1.6-4.1-5.2c0-3.3,1.9-5.2,4.3-5.2C232.6,258.8,233.5,259.2,234.1,259.8 M233.8,261.3c-0.4-0.2-1-0.5-1.8-0.5
			c-1.3,0-2.1,0.9-2.1,3.2c0,2.4,0.8,3.3,2,3.3c0.7,0,1.4-0.3,1.9-0.9V261.3z"/>
		<path id="XMLID_57_" class="st2" d="M241.2,264.8c0,1.6,0.9,2.5,2.6,2.5c1,0,2.1-0.4,2.9-0.9l0.5,1.9c-0.8,0.4-2.2,1-3.8,1
			c-3.1,0-5-1.9-5-5.3c0-3.1,1.5-5.2,4.7-5.2c3,0,4.2,2.3,4.2,4.8v1.2H241.2z M243.1,260.8c-1.3,0-1.9,1.2-1.9,2.4h3.7
			C244.9,261.9,244.5,260.8,243.1,260.8"/>
		<path id="XMLID_56_" class="st2" d="M259.7,269.3c-3.9,0-6-2.6-6-7.2c0-4.3,2.1-7.1,6-7.1c1.9,0,3.6,0.4,4.7,1.2l-1,2.1
			c-0.7-0.5-2-0.9-3.4-0.9c-2.3,0-3.4,1.7-3.4,4.7c0,3.2,1.1,4.9,3.4,4.9c1.4,0,2.7-0.6,3.7-1.3l0.9,2.2
			C263.1,268.8,261.5,269.3,259.7,269.3"/>
		<path id="XMLID_55_" class="st2" d="M266.3,269.1v-14.2h2.7v3.7c0,0.7-0.2,1.4-0.3,1.6c0.6-0.7,1.4-1.4,2.8-1.4
			c2.9,0,3.7,1.5,3.7,4v6.2h-2.7v-6c0-0.3,0-0.5-0.1-0.6c-0.1-1.1-0.7-1.6-1.7-1.6c-0.7,0-1.3,0.3-1.8,0.6v7.6H266.3z"/>
		<path id="XMLID_52_" class="st2" d="M278.3,269.1V261l-1.2-0.2V259h3.8v10.1H278.3z M278.2,254.9h2.7v2.4h-2.7V254.9z"/>
		<path id="XMLID_51_" class="st2" d="M283.4,266.4v-11.5h2.6v11.4c0,0.8,0.5,1,1.6,1v1.9c0,0-0.8,0.2-1.5,0.2
			C284.2,269.3,283.4,268.2,283.4,266.4"/>
		<path id="XMLID_48_" class="st2" d="M291.8,264.8c0,1.6,0.9,2.5,2.6,2.5c1,0,2.1-0.4,2.9-0.9l0.5,1.9c-0.8,0.4-2.2,1-3.8,1
			c-3.1,0-5-1.9-5-5.3c0-3.1,1.5-5.2,4.7-5.2c3,0,4.2,2.3,4.2,4.8v1.2H291.8z M293.6,260.8c-1.3,0-1.9,1.2-1.9,2.4h3.7
			C295.4,261.9,295,260.8,293.6,260.8"/>
	</g>
	<g id="XMLID_3_">
		<path id="XMLID_45_" class="st2" d="M157.5,46.3l-0.4-14.8H157c-0.3,1.9-0.6,3.2-0.9,4.2l-2.5,10.6h-5l-2.4-10.6
			c-0.2-1-0.5-2.4-0.9-4.2h-0.1L145,46.3h-3.1l0.7-17.6h5.9c0,0,1.9,8.8,2.9,14.5h0.1c1.2-5.6,3.5-14.5,3.5-14.5h5.7l0.7,17.6H157.5
			z"/>
		<path id="XMLID_42_" class="st2" d="M165.3,46.3V36l-1.5-0.3v-2.1h4.9v12.7H165.3z M165.2,28.3h3.4v3.1h-3.4V28.3z"/>
		<path id="XMLID_40_" class="st2" d="M179.7,46.3v-7.6c0-1.9-0.7-2.8-2.3-2.8c-0.9,0-1.6,0.4-2.2,0.8v9.6h-3.4V33.5h2.3l0.5,1.5
			c0.7-0.9,2.1-1.7,4-1.7c3.2,0,4.5,1.9,4.5,5.1v7.9H179.7z"/>
		<path id="XMLID_37_" class="st2" d="M187,46.3V36l-1.5-0.3v-2.1h4.9v12.7H187z M186.9,28.3h3.4v3.1h-3.4V28.3z"/>
		<path id="XMLID_35_" class="st2" d="M196.4,36.9c0,2,5.5,1.4,5.5,5.5c0,2.3-1.7,4.1-5,4.1c-1.5,0-3-0.4-3.8-0.9l0.7-2.4
			c0.6,0.4,1.8,0.9,3,0.9c1.1,0,1.9-0.6,1.9-1.4c0-2.3-5.4-1.5-5.4-5.9c0-1.9,1.4-3.6,4.9-3.6c1.3,0,2.7,0.3,3.6,0.6l-0.5,2.5
			c-0.9-0.4-2-0.7-3.1-0.7C197,35.7,196.4,36.2,196.4,36.9z"/>
		<path id="XMLID_33_" class="st2" d="M209.3,46.5c-2.3,0-3.7-1.1-3.7-4.3V36h-1.9v-2.4h1.9v-2.2l3.4-1.1v3.3h3.4V36h-3.4v6.2
			c0,0.9,0.4,1.5,1.4,1.5c0.7,0,1.4-0.2,2-0.5l0.5,2.5C212,46.1,210.6,46.5,209.3,46.5z"/>
		<path id="XMLID_30_" class="st2" d="M217.2,40.8c0,2,1.1,3.1,3.3,3.1c1.3,0,2.6-0.5,3.7-1.1l0.6,2.4c-1.1,0.6-2.8,1.2-4.8,1.2
			c-3.9,0-6.3-2.4-6.3-6.7c0-3.9,1.9-6.6,6-6.6c3.8,0,5.4,2.9,5.4,6.1v1.5H217.2z M219.6,35.8c-1.7,0-2.4,1.5-2.4,3h4.7
			C221.8,37.2,221.3,35.8,219.6,35.8z"/>
		<path id="XMLID_28_" class="st2" d="M234.9,36.4c-0.4-0.1-1-0.2-1.6-0.2c-0.9,0-1.7,0.4-2.3,0.9v9.3h-3.4V33.5h2.4l0.4,1.7h0.1
			c0.4-0.9,1.5-2,3-2c0.7,0,1.2,0.1,1.5,0.2L234.9,36.4z"/>
		<path id="XMLID_25_" class="st2" d="M238,46.3V36l-1.5-0.3v-2.1h4.9v12.7H238z M237.9,28.3h3.4v3.1h-3.4V28.3z"/>
		<path id="XMLID_22_" class="st2" d="M255.9,39.9c0,4.3-2.2,6.7-6,6.7c-3.8,0-6-2.3-6-6.7c0-3.7,2.1-6.6,6-6.6
			C253.8,33.3,255.9,36.1,255.9,39.9z M252.4,39.9c0-3.1-0.9-4.1-2.5-4.1c-1.6,0-2.5,1.1-2.5,4.1c0,3,0.8,4.2,2.5,4.2
			C251.6,44.1,252.4,42.9,252.4,39.9z"/>
		<path id="XMLID_19_" class="st2" d="M272.4,34.5c-0.2-0.7-0.3-1.4-0.3-2.3v-3.8h3.4v17.9h-2.8l-0.4-1.4c-0.5,0.8-1.7,1.7-3.4,1.7
			c-2.9,0-5.2-2.1-5.2-6.6c0-4.2,2.4-6.6,5.5-6.6C270.6,33.3,271.7,33.8,272.4,34.5z M272.1,36.5c-0.5-0.3-1.3-0.6-2.3-0.6
			c-1.6,0-2.6,1.1-2.6,4.1c0,3,1,4.2,2.6,4.2c0.9,0,1.7-0.4,2.4-1.1V36.5z"/>
		<path id="XMLID_16_" class="st2" d="M281.5,40.8c0,2,1.1,3.1,3.3,3.1c1.3,0,2.6-0.5,3.7-1.1l0.7,2.4c-1.1,0.6-2.8,1.2-4.8,1.2
			c-3.9,0-6.3-2.4-6.3-6.7c0-3.9,1.9-6.6,6-6.6c3.8,0,5.4,2.9,5.4,6.1v1.5H281.5z M283.8,35.8c-1.7,0-2.4,1.5-2.4,3h4.7
			C286.1,37.2,285.6,35.8,283.8,35.8z"/>
		<path id="XMLID_14_" class="st2" d="M147.3,71c-2.3,0-4.3-0.8-5.7-1.9l1.3-2.7c1,0.9,2.9,1.7,4.5,1.7c1.6,0,2.7-1,2.7-2.3
			c0-3.7-8.1-1.9-8.1-8.1c0-2.7,2.1-4.8,6.2-4.8c2.1,0,3.8,0.4,5.2,1.2l-1.1,2.7c-1-0.6-2.5-1-4.1-1c-1.6,0-2.6,0.5-2.6,1.8
			c0,3.1,8.2,1.9,8.2,7.9C153.6,68.4,151.3,71,147.3,71z"/>
		<path id="XMLID_11_" class="st2" d="M164.1,70.8l-0.5-1.5c-0.7,0.9-1.9,1.8-3.7,1.8c-2.5,0-4.3-1.6-4.3-4.1c0-2.4,1.7-3.8,4.8-3.8
			h2.7v-0.7c0-1.6-0.9-2.2-2.2-2.2c-1.5,0-2.8,0.4-3.8,0.9l-0.9-2.4c1.3-0.5,3-1,5-1c3.6,0,5.2,1.7,5.2,4.9v8.1H164.1z M163.1,65.2
			H161c-1.4,0-2.1,0.7-2.1,1.6c0,1.2,0.6,1.9,1.9,1.9c0.8,0,1.6-0.4,2.3-0.9V65.2z"/>
		<path id="XMLID_9_" class="st2" d="M169.4,67.4V52.8h3.4v14.4c0,1.1,0.6,1.2,2.1,1.2v2.4c0,0-1,0.2-1.9,0.2
			C170.3,71,169.4,69.7,169.4,67.4z"/>
		<path id="XMLID_7_" class="st2" d="M185.9,70.8l-0.5-1.6c-0.6,0.8-1.9,1.8-4,1.8c-3.2,0-4.6-1.8-4.6-5.3V58h3.4v7.7
			c0,2,0.7,2.7,2.2,2.7c0.9,0,1.7-0.3,2.3-0.8V58h3.5v12.7H185.9z"/>
		<path id="XMLID_4_" class="st2" d="M199.2,59c-0.2-0.7-0.3-1.4-0.3-2.3v-3.8h3.4v17.9h-2.8l-0.4-1.4c-0.5,0.8-1.7,1.7-3.4,1.7
			c-2.9,0-5.2-2.1-5.2-6.6c0-4.2,2.4-6.6,5.5-6.6C197.4,57.8,198.5,58.3,199.2,59z M198.9,61c-0.5-0.3-1.3-0.6-2.3-0.6
			c-1.6,0-2.6,1.1-2.6,4.1c0,3,1,4.2,2.6,4.2c0.9,0,1.7-0.4,2.4-1.1V61z"/>
	</g>
</g>
</svg>
